<?xml version="1.0" encoding="utf-8"?>
<!-- Generator: Adobe Illustrator 25.4.1, SVG Export Plug-In . SVG Version: 6.00 Build 0)  -->
<svg version="1.1" id="Layer_1" xmlns="http://www.w3.org/2000/svg" xmlns:xlink="http://www.w3.org/1999/xlink" x="0px" y="0px"
	 viewBox="0 0 1600 900" style="enable-background:new 0 0 1600 900;" xml:space="preserve">
<style type="text/css">
	.st0{fill:#FF501E;}
</style>
<g>
	<g>
		<path class="st0" d="M1364.61,511.37c-5.9,0-9.85,4.77-9.85,9.94c0,5.17,3.95,9.94,9.85,9.94c5.9,0,9.84-4.77,9.84-9.94
			C1374.45,516.14,1370.51,511.37,1364.61,511.37z M1364.61,529.65c-4.85,0-7.89-4.03-7.89-8.34c0-4.31,3.04-8.34,7.89-8.34
			s7.89,4.03,7.89,8.34C1372.5,525.62,1369.46,529.65,1364.61,529.65z"/>
		<path class="st0" d="M1364.78,524.77c-1.71,0-2.69-1.31-2.69-3.43c0-2.2,0.98-3.51,2.76-3.51c1.29,0,1.96,0.6,2.3,1.83h2.86
			c-0.24-2.57-2.37-4.11-5.24-4.11c-3.42,0-5.62,2.23-5.62,5.8c0,3.54,2.13,5.71,5.59,5.71c2.76,0,4.61-1.29,5.31-4.28h-2.9
			C1366.77,524.2,1366.04,524.77,1364.78,524.77z"/>
		<path class="st0" d="M403.99,461.16l-20.3,3.88l-14.76-164.73l-27.11,2.43l4.65,51.89l-14.76-5.07L285.6,483.8L218,496.72
			l5.12,26.74l52.3-10l-12.79,37.23l25.74,8.84l17.85-51.96l53.05-10.15l9.31,103.95l27.11-2.43l-9.56-106.66l22.97-4.39
			L403.99,461.16z M316.4,477.91l32.61-94.92l7.81,87.19L316.4,477.91z"/>
		<polygon class="st0" points="564.97,287.83 537.75,288 539.2,531.66 474.03,393.06 475.95,316.22 448.74,315.54 448.01,344.76 
			426.09,355.07 446.66,398.81 441.97,586.49 469.18,587.17 472.51,453.81 548.76,615.99 573.4,604.41 566.76,590.3 		"/>
		
			<rect x="795.01" y="332.1" transform="matrix(1 -1.113107e-03 1.113107e-03 1 -0.4049 0.9003)" class="st0" width="27.22" height="64.26"/>
		
			<rect x="715.71" y="491.7" transform="matrix(0.1074 -0.9942 0.9942 0.1074 205.4798 1239.4932)" class="st0" width="154.66" height="27.22"/>
		<path class="st0" d="M987.26,492.27l-28.22,5.79l-26.22-111.4l20.13-72.97l-26.24-7.24l-6.89,24.97l-3.3-14l-26.49,6.23
			l14.7,62.47l-35.98,130.45l-34.77,7.13l5.46,26.66l21.18-4.34l-15.01,54.41l26.24,7.24l18.7-67.78l48.05-9.85l13.09,55.6
			l26.49-6.24l-12.9-54.83l27.45-5.63L987.26,492.27z M898.68,510.43l19.06-69.08l14.63,62.18L898.68,510.43z"/>
		<polygon class="st0" points="1161.56,318.96 1134.61,315.13 1105.88,517.63 1068.46,375.92 1079.05,277.3 1051.98,274.4 
			1049,302.21 1047.4,296.18 1021.09,303.12 1040.86,378 1014.59,622.7 1041.66,625.6 1060.32,451.71 1090.68,566.66 1099.25,564.4 
			1096.81,581.57 1123.76,585.39 1147.19,420.25 1169.72,567.25 1196.63,563.13 1160.43,326.95 		"/>
		<path class="st0" d="M1359.7,489.32l22.3-15.61l-12.87-18.38l8.74-13.48l-22.84-14.81l-2.74,4.23l-55.86-79.79l8.75-26.4
			l-25.84-8.56l-4.23,12.77l-18.41,12.89l9.6,13.71l-23.84,71.93l-9.2-19.25l-24.56,11.74l21.41,44.8l-8.16,24.63l23.68,7.85
			l27.02,56.55l-9.88,15.24l22.84,14.81l67.55-104.2L1359.7,489.32z M1290.01,527.33l-30.62-64.09l26.37-79.56l50.56,72.22
			L1290.01,527.33z"/>
		<polygon class="st0" points="753.41,413.5 753.48,412.89 752.36,412.76 653.07,342.79 653.08,305.94 625.86,305.93 625.86,323.61 
			622.17,321.01 606.48,343.26 625.85,356.9 625.79,542.47 653.01,542.47 653.06,376.08 724.45,426.39 712.55,525.61 605.22,558.98 
			613.3,584.98 729.52,548.83 728.67,546.08 737.39,547.12 753.17,415.52 754.2,414.05 		"/>
	</g>
</g>
</svg>
