<?xml version="1.0" encoding="utf-8"?>
<!-- Generator: Adobe Illustrator 25.4.1, SVG Export Plug-In . SVG Version: 6.00 Build 0)  -->
<svg version="1.1" id="Layer_1" xmlns="http://www.w3.org/2000/svg" xmlns:xlink="http://www.w3.org/1999/xlink" x="0px" y="0px"
	 viewBox="0 0 500 500" style="enable-background:new 0 0 500 500;" xml:space="preserve">
<style type="text/css">
	.st0{fill:#FF501E;}
</style>
<g>
	<path class="st0" d="M271.62,269.52c-0.4,0-0.63-0.31-0.63-0.8c0-0.52,0.23-0.82,0.65-0.82c0.3,0,0.46,0.14,0.54,0.43h0.67
		c-0.06-0.6-0.56-0.96-1.23-0.96c-0.8,0-1.32,0.52-1.32,1.36c0,0.83,0.5,1.34,1.31,1.34c0.65,0,1.08-0.3,1.24-1h-0.68
		C272.08,269.39,271.91,269.52,271.62,269.52z"/>
	<path class="st0" d="M271.58,266.38c-1.38,0-2.31,1.12-2.31,2.33c0,1.21,0.93,2.33,2.31,2.33c1.38,0,2.31-1.12,2.31-2.33
		C273.88,267.5,272.96,266.38,271.58,266.38z M271.58,270.67c-1.14,0-1.85-0.94-1.85-1.95c0-1.01,0.71-1.95,1.85-1.95
		c1.14,0,1.85,0.94,1.85,1.95C273.43,269.72,272.71,270.67,271.58,270.67z"/>
	<path class="st0" d="M285.15,261.2l-1.26-8.11l-19.04,2.96l-4.61-51.46l-8.18,0.73l1.4,15.65l-4.45-1.53l-14.18,41.27l-19.99,3.11
		l1.26,8.11l15.71-2.44l-3.65,10.63l7.77,2.67l5.06-14.73l16.46-2.56l2.68,29.91l8.18-0.73l-2.73-30.44L285.15,261.2z
		 M244.01,259.29l10.22-29.76l2.49,27.78L244.01,259.29z"/>
</g>
</svg>
