<?xml version="1.0" encoding="utf-8"?>
<!-- Generator: Adobe Illustrator 25.4.1, SVG Export Plug-In . SVG Version: 6.00 Build 0)  -->
<svg version="1.1" id="Layer_1" xmlns="http://www.w3.org/2000/svg" xmlns:xlink="http://www.w3.org/1999/xlink" x="0px" y="0px"
	 viewBox="0 0 990.85 350" style="enable-background:new 0 0 990.85 350;" xml:space="preserve">
<style type="text/css">
	.st0{fill:#FF501E;}
</style>
<g>
	<path class="st0" d="M886,217.45c-4.08,0-6.81,3.3-6.81,6.88s2.73,6.88,6.81,6.88c4.08,0,6.81-3.3,6.81-6.88
		S890.08,217.45,886,217.45z M886,230.1c-3.36,0-5.46-2.79-5.46-5.77c0-2.98,2.1-5.77,5.46-5.77c3.36,0,5.46,2.79,5.46,5.77
		C891.45,227.31,889.35,230.1,886,230.1z"/>
	<path class="st0" d="M886.12,226.72c-1.18,0-1.86-0.91-1.86-2.37c0-1.52,0.68-2.43,1.91-2.43c0.9,0,1.35,0.41,1.59,1.26h1.98
		c-0.17-1.78-1.64-2.85-3.62-2.85c-2.37,0-3.89,1.54-3.89,4.01c0,2.45,1.48,3.95,3.86,3.95c1.91,0,3.19-0.89,3.67-2.96h-2
		C887.49,226.33,886.99,226.72,886.12,226.72z"/>
	<path class="st0" d="M221.49,182.72l-14.04,2.69L197.23,71.45l-18.76,1.68l3.22,35.9l-10.21-3.51l-31.9,92.86l-46.76,8.94
		l3.54,18.49l36.17-6.92l-8.85,25.75l17.81,6.12l12.35-35.95l36.7-7.02l6.44,71.91l18.76-1.68l-6.61-73.78l15.89-3.04L221.49,182.72
		z M160.9,194.3l22.55-65.66l5.4,60.31L160.9,194.3z"/>
	<polygon class="st0" points="332.84,62.82 314.02,62.93 315.02,231.49 269.94,135.61 271.27,82.46 252.44,81.99 251.94,102.2 
		236.78,109.33 251,139.59 247.76,269.42 266.58,269.89 268.89,177.63 321.64,289.83 338.68,281.81 334.09,272.06 	"/>
	
		<rect x="491.97" y="93.44" transform="matrix(1 -1.103143e-03 1.103143e-03 1 -0.1273 0.5532)" class="st0" width="18.83" height="44.45"/>
	
		<rect x="437.12" y="203.85" transform="matrix(0.1074 -0.9942 0.9942 0.1074 225.8774 678.1238)" class="st0" width="106.99" height="18.83"/>
	<path class="st0" d="M624.97,204.24l-19.52,4l-18.14-77.06l13.92-50.48l-18.15-5.01l-4.76,17.27l-2.28-9.69l-18.33,4.32
		l10.17,43.21l-24.89,90.24l-24.05,4.93l3.78,18.45l14.65-3l-10.38,37.64l18.15,5.01l12.93-46.89l33.24-6.81l9.05,38.46l18.33-4.32
		l-8.93-37.93l18.99-3.89L624.97,204.24z M563.69,216.8l13.18-47.79l10.12,43.01L563.69,216.8z"/>
	<polygon class="st0" points="745.54,84.35 726.9,81.71 707.02,221.79 681.13,123.75 688.46,55.54 669.74,53.53 667.67,72.76 
		666.57,68.59 648.36,73.4 662.04,125.19 643.87,294.46 662.59,296.47 675.51,176.18 696.5,255.7 702.43,254.14 700.75,266.01 
		719.39,268.65 735.6,154.42 751.18,256.11 769.8,253.26 744.75,89.88 	"/>
	<path class="st0" d="M882.6,202.2l15.43-10.8l-8.9-12.72l6.05-9.33l-15.8-10.24l-1.9,2.93l-38.64-55.2l6.05-18.26l-17.87-5.92
		l-2.93,8.84l-12.74,8.92l6.64,9.48l-16.49,49.76l-6.36-13.32l-16.99,8.12l14.81,30.99l-5.65,17.04l16.38,5.43l18.69,39.12
		l-6.83,10.54l15.8,10.24l46.73-72.08L882.6,202.2z M834.39,228.5l-21.18-44.33l18.24-55.04l34.97,49.96L834.39,228.5z"/>
	<polygon class="st0" points="463.2,149.75 463.25,149.33 462.47,149.24 393.79,100.84 393.8,75.34 374.97,75.34 374.97,87.57 
		372.41,85.77 361.56,101.16 374.96,110.6 374.92,238.96 393.75,238.97 393.78,123.87 443.16,158.67 434.94,227.3 360.69,250.39 
		366.28,268.37 446.67,243.37 446.08,241.46 452.12,242.18 463.03,151.15 463.74,150.13 	"/>
</g>
</svg>
